<?xml version="1.0" encoding="UTF-8"?>
<!--Generator: Apple Native CoreSVG 326-->
<!DOCTYPE svg
PUBLIC "-//W3C//DTD SVG 1.1//EN"
       "http://www.w3.org/Graphics/SVG/1.1/DTD/svg11.dtd">
<svg version="1.1" xmlns="http://www.w3.org/2000/svg" xmlns:xlink="http://www.w3.org/1999/xlink" viewBox="0 0 88.0005 70.9938">
 <g>
  <rect height="70.9938" opacity="0" width="88.0005" x="0" y="0"/>
  <path d="M67.6626 69.9813L87.022 50.2967C87.6182 49.6668 88.0005 48.8128 88.0005 48.0365C88.0005 46.2679 86.7676 45.0536 85.0176 45.0536C84.167 45.0536 83.5034 45.3534 82.8921 45.9647L74.5552 54.5037L68.1123 61.7855L68.4121 53.119L68.4121 2.99838C68.4121 1.27865 67.1944 0.0154663 65.4292 0.0154663C63.6792 0.0154663 62.4277 1.27865 62.4277 2.99838L62.4277 53.119L62.7461 61.7855L56.2847 54.5037L47.9326 45.9647C47.3701 45.3534 46.6729 45.0536 45.8072 45.0536C44.0723 45.0536 42.8579 46.2679 42.8579 48.0365C42.8579 48.8128 43.2066 49.6668 43.8364 50.2967L63.1621 69.9813C64.4287 71.3002 66.396 71.349 67.6626 69.9813Z" fill="#333333"/>
  <path d="M20.3379 0.982266L0.978518 20.6668C0.382325 21.2967 0 22.117 0 22.9271C0 24.6957 1.23291 25.91 2.98292 25.91C3.83351 25.91 4.49708 25.6102 5.10841 24.9989L13.4453 16.4598L19.8882 9.14439L19.5547 17.8446L19.5547 67.9652C19.5547 69.7186 20.8213 70.9818 22.5713 70.9818C24.3213 70.9818 25.5728 69.7186 25.5728 67.9652L25.5728 17.8446L25.2544 9.14439L31.6973 16.4598L40.0342 24.9989C40.6455 25.6102 41.2939 25.91 42.1597 25.91C43.8945 25.91 45.1426 24.6957 45.1426 22.9271C45.1426 22.117 44.7603 21.2967 44.1641 20.6668L24.8384 0.982266C23.5718-0.302894 21.6045-0.351722 20.3379 0.982266Z" fill="#333333"/>
 </g>
</svg>
