<?xml version="1.0" encoding="UTF-8"?>
<!--Generator: Apple Native CoreSVG 326-->
<!DOCTYPE svg
PUBLIC "-//W3C//DTD SVG 1.1//EN"
       "http://www.w3.org/Graphics/SVG/1.1/DTD/svg11.dtd">
<svg version="1.1" xmlns="http://www.w3.org/2000/svg" xmlns:xlink="http://www.w3.org/1999/xlink" viewBox="0 0 76.0024 69.9385">
 <g>
  <rect height="69.9385" opacity="0" width="76.0024" x="0" y="0"/>
  <path d="M11.6338 69.9385L64.3687 69.9385C72.1279 69.9385 76.0024 66.0186 76.0024 58.4058L76.0024 11.6118C76.0024 3.99902 72.1279 0.0791013 64.3687 0.0791013L11.6338 0.0791013C3.92334 0.0791013 0 3.96875 0 11.6118L0 58.4058C0 66.0488 3.92334 69.9385 11.6338 69.9385ZM11.1924 64.478C7.45362 64.478 5.42677 62.5186 5.42677 58.6787L5.42677 23.1709C5.42677 19.3311 7.45362 17.3564 11.1924 17.3564L64.7764 17.3564C68.4546 17.3564 70.5908 19.3311 70.5908 23.1709L70.5908 58.6787C70.5908 62.5186 68.4546 64.478 64.7764 64.478ZM30.4356 31.0083L32.6816 31.0083C33.98 31.0083 34.3472 30.6411 34.3472 29.3916L34.3472 27.1455C34.3472 25.9111 33.98 25.5439 32.6816 25.5439L30.4356 25.5439C29.186 25.5439 28.8188 25.9111 28.8188 27.1455L28.8188 29.3916C28.8188 30.6411 29.186 31.0083 30.4356 31.0083ZM43.3208 31.0083L45.5669 31.0083C46.8315 31.0083 47.1836 30.6411 47.1836 29.3916L47.1836 27.1455C47.1836 25.9111 46.8315 25.5439 45.5669 25.5439L43.3208 25.5439C42.0225 25.5439 41.6553 25.9111 41.6553 27.1455L41.6553 29.3916C41.6553 30.6411 42.0225 31.0083 43.3208 31.0083ZM56.1572 31.0083L58.4033 31.0083C59.668 31.0083 60.0688 30.6411 60.0688 29.3916L60.0688 27.1455C60.0688 25.9111 59.668 25.5439 58.4033 25.5439L56.1572 25.5439C54.8589 25.5439 54.5068 25.9111 54.5068 27.1455L54.5068 29.3916C54.5068 30.6411 54.8589 31.0083 56.1572 31.0083ZM17.5991 43.6494L19.8452 43.6494C21.1436 43.6494 21.5108 43.2974 21.5108 42.0479L21.5108 39.8018C21.5108 38.5522 21.1436 38.1851 19.8452 38.1851L17.5991 38.1851C16.3345 38.1851 15.9336 38.5522 15.9336 39.8018L15.9336 42.0479C15.9336 43.2974 16.3345 43.6494 17.5991 43.6494ZM30.4356 43.6494L32.6816 43.6494C33.98 43.6494 34.3472 43.2974 34.3472 42.0479L34.3472 39.8018C34.3472 38.5522 33.98 38.1851 32.6816 38.1851L30.4356 38.1851C29.186 38.1851 28.8188 38.5522 28.8188 39.8018L28.8188 42.0479C28.8188 43.2974 29.186 43.6494 30.4356 43.6494ZM43.3208 43.6494L45.5669 43.6494C46.8315 43.6494 47.1836 43.2974 47.1836 42.0479L47.1836 39.8018C47.1836 38.5522 46.8315 38.1851 45.5669 38.1851L43.3208 38.1851C42.0225 38.1851 41.6553 38.5522 41.6553 39.8018L41.6553 42.0479C41.6553 43.2974 42.0225 43.6494 43.3208 43.6494ZM56.1572 43.6494L58.4033 43.6494C59.668 43.6494 60.0688 43.2974 60.0688 42.0479L60.0688 39.8018C60.0688 38.5522 59.668 38.1851 58.4033 38.1851L56.1572 38.1851C54.8589 38.1851 54.5068 38.5522 54.5068 39.8018L54.5068 42.0479C54.5068 43.2974 54.8589 43.6494 56.1572 43.6494ZM17.5991 56.3057L19.8452 56.3057C21.1436 56.3057 21.5108 55.9385 21.5108 54.689L21.5108 52.4429C21.5108 51.1934 21.1436 50.8413 19.8452 50.8413L17.5991 50.8413C16.3345 50.8413 15.9336 51.1934 15.9336 52.4429L15.9336 54.689C15.9336 55.9385 16.3345 56.3057 17.5991 56.3057ZM30.4356 56.3057L32.6816 56.3057C33.98 56.3057 34.3472 55.9385 34.3472 54.689L34.3472 52.4429C34.3472 51.1934 33.98 50.8413 32.6816 50.8413L30.4356 50.8413C29.186 50.8413 28.8188 51.1934 28.8188 52.4429L28.8188 54.689C28.8188 55.9385 29.186 56.3057 30.4356 56.3057ZM43.3208 56.3057L45.5669 56.3057C46.8315 56.3057 47.1836 55.9385 47.1836 54.689L47.1836 52.4429C47.1836 51.1934 46.8315 50.8413 45.5669 50.8413L43.3208 50.8413C42.0225 50.8413 41.6553 51.1934 41.6553 52.4429L41.6553 54.689C41.6553 55.9385 42.0225 56.3057 43.3208 56.3057Z" fill="#333333"/>
 </g>
</svg>
