<?xml version="1.0" encoding="UTF-8"?>
<!--Generator: Apple Native CoreSVG 326-->
<!DOCTYPE svg
PUBLIC "-//W3C//DTD SVG 1.1//EN"
       "http://www.w3.org/Graphics/SVG/1.1/DTD/svg11.dtd">
<svg version="1.1" xmlns="http://www.w3.org/2000/svg" xmlns:xlink="http://www.w3.org/1999/xlink" viewBox="0 0 118.982 58.0517">
 <g>
  <rect height="58.0517" opacity="0" width="118.982" x="0" y="0"/>
  <path d="M102.449 57.2578C110.033 57.2578 116.481 53.0771 118.652 46.9858C118.884 46.4233 118.982 45.8003 118.982 45.2749C118.982 43.8584 117.963 42.8276 116.535 42.8276C115.238 42.8276 114.604 43.3716 113.867 44.8369C111.861 49.6514 107.971 52.3144 102.449 52.3144C94.4527 52.3144 89.2925 46.06 89.2925 35.9722C89.2925 25.9365 94.4946 19.5625 102.407 19.5625C107.727 19.5625 111.733 22.1582 113.739 27.1074C114.443 28.5391 115.144 29.0679 116.373 29.0679C117.869 29.0679 118.854 28.1196 118.854 26.6357C118.854 26.1777 118.756 25.6372 118.606 25.1724C116.653 19.0962 110.092 14.6528 102.288 14.6528C90.8701 14.6528 83.48 23.1001 83.48 36.0361C83.48 49.0244 90.9492 57.2578 102.449 57.2578Z" fill="#333333"/>
  <path d="M44.1973 57.2275C45.8311 57.2275 46.9815 56.1108 46.9815 54.3491L46.9815 47.6489L47.0977 47.6489C49.5376 53.5645 54.8189 57.2578 61.4522 57.2578C71.9419 57.2578 78.9141 48.7754 78.9141 35.957C78.9141 23.0864 71.9082 14.6528 61.5195 14.6528C54.9605 14.6528 49.6084 18.3765 47.315 24.1826L47.1499 24.1826L47.1499 3.01319C47.1499 1.16553 45.9995 0 44.3018 0C42.604 0 41.4688 1.16553 41.4688 3.01319L41.4688 54.3491C41.4688 56.1445 42.5518 57.2275 44.1973 57.2275ZM60.2275 52.3144C52.5742 52.3144 47.1919 45.7925 47.1919 35.9873C47.1919 26.1821 52.5894 19.5962 60.2275 19.5962C68.0679 19.5962 73.0679 26.0054 73.0679 35.957C73.0679 45.9575 68.0527 52.3144 60.2275 52.3144Z" fill="#333333"/>
  <path d="M13.7393 57.2275C19.896 57.2275 25.5967 53.852 27.8867 48.7036L28.0029 48.7036L28.0029 54.4502C28.0029 56.1294 29.1348 57.2612 30.7349 57.2612C32.3652 57.2612 33.4971 56.1294 33.4971 54.3154L33.4971 28.4238C33.4971 20.0356 27.5044 14.6528 17.9019 14.6528C10.5493 14.6528 4.70313 17.8769 2.54444 23.0488C2.13184 23.9497 1.85401 24.8774 1.85401 25.6167C1.85401 27.1309 2.96729 28.1128 4.44776 28.1128C5.5088 28.1128 6.32228 27.6699 6.82423 26.6797C8.76759 21.9155 12.3213 19.5288 17.752 19.5288C24.0566 19.5288 27.8008 23.1582 27.8008 28.8921L27.8008 32.293L14.9888 33.0303C5.28711 33.5942 0 38.0293 0 45.1162C0 52.3564 5.63037 57.2275 13.7393 57.2275ZM15.0347 52.5049C9.59522 52.5049 5.83107 49.4477 5.83107 44.9697C5.83107 40.6802 9.23683 37.7778 15.7197 37.3638L27.8008 36.5288L27.8008 41.0703C27.8008 47.4258 22.1089 52.5049 15.0347 52.5049Z" fill="#333333"/>
 </g>
</svg>
