<?xml version="1.0" encoding="UTF-8"?>
<!--Generator: Apple Native CoreSVG 326-->
<!DOCTYPE svg
PUBLIC "-//W3C//DTD SVG 1.1//EN"
       "http://www.w3.org/Graphics/SVG/1.1/DTD/svg11.dtd">
<svg version="1.1" xmlns="http://www.w3.org/2000/svg" xmlns:xlink="http://www.w3.org/1999/xlink" viewBox="0 0 65.0879 39.3028">
 <g>
  <rect height="39.3028" opacity="0" width="65.0879" x="0" y="0"/>
  <path d="M0.929689 31.4419C0.36377 31.9893 0 32.7422 0 33.6079C0 35.3428 1.33399 36.6919 3.08399 36.6919C3.91944 36.6919 4.71779 36.3735 5.23488 35.8076L34.4058 5.55177L30.6821 5.55177L59.8379 35.8076C60.3701 36.3735 61.2207 36.6919 62.0376 36.6919C63.7725 36.6919 65.0879 35.3428 65.0879 33.6079C65.0879 32.7422 64.7393 32.0044 64.1734 31.457L34.874 1.03906C34.2627 0.360352 33.4307 0 32.5532 0C31.6421 0 30.8438 0.345215 30.2476 1.02393Z" fill="#333333"/>
 </g>
</svg>
