<?xml version="1.0" encoding="UTF-8"?>
<!--Generator: Apple Native CoreSVG 326-->
<!DOCTYPE svg
PUBLIC "-//W3C//DTD SVG 1.1//EN"
       "http://www.w3.org/Graphics/SVG/1.1/DTD/svg11.dtd">
<svg version="1.1" xmlns="http://www.w3.org/2000/svg" xmlns:xlink="http://www.w3.org/1999/xlink" viewBox="0 0 65.0879 39.5654">
 <g>
  <rect height="39.5654" opacity="0" width="65.0879" x="0" y="0"/>
  <path d="M32.5532 39.5654C33.4307 39.5654 34.2627 39.2051 34.874 38.5264L64.1734 8.10842C64.7393 7.52736 65.0879 6.82326 65.0879 5.95753C65.0879 4.22267 63.7725 2.87354 62.0376 2.87354C61.2207 2.87354 60.4038 3.22559 59.8379 3.75782L30.6821 33.98L34.4058 33.98L5.23488 3.75782C4.68409 3.22559 3.91944 2.87354 3.08399 2.87354C1.33399 2.87354 0 4.22267 0 5.95753C0 6.82326 0.36377 7.5425 0.929689 8.12356L30.2476 38.5415C30.8775 39.2202 31.6421 39.5654 32.5532 39.5654Z" fill="#333333"/>
 </g>
</svg>
