<?xml version="1.0" encoding="UTF-8"?>
<!--Generator: Apple Native CoreSVG 326-->
<!DOCTYPE svg
PUBLIC "-//W3C//DTD SVG 1.1//EN"
       "http://www.w3.org/Graphics/SVG/1.1/DTD/svg11.dtd">
<svg version="1.1" xmlns="http://www.w3.org/2000/svg" xmlns:xlink="http://www.w3.org/1999/xlink" viewBox="0 0 93.1152 66.748">
 <g>
  <rect height="66.748" opacity="0" width="93.1152" x="0" y="0"/>
  <path d="M46.5332 37.2559C47.7539 37.2559 48.9746 36.7676 50.0977 35.7422L88.5742 2.00195C86.377 0.634766 83.9844 0.0488281 80.6641 0.0488281L12.4512 0.0488281C9.13086 0.0488281 6.73828 0.634766 4.49219 2.00195L43.0176 35.7422C44.1406 36.7676 45.3613 37.2559 46.5332 37.2559ZM0.830078 59.9609L28.9551 31.8359L0.732422 7.12891C0.439453 7.76367 0 9.61914 0 12.3047L0 54.4922C0 56.8848 0.341797 58.5938 0.830078 59.9609ZM11.084 66.748L82.0312 66.748C84.7656 66.748 86.9629 66.1133 88.4277 65.1367L59.2773 36.0352L53.8574 40.8691C51.5625 42.8711 49.0234 43.8965 46.5332 43.8965C44.0918 43.8965 41.5527 42.8711 39.2578 40.8691L33.7891 36.0352L4.63867 65.1367C6.10352 66.1133 8.34961 66.748 11.084 66.748ZM92.2852 59.9609C92.7246 58.5938 93.1152 56.8848 93.1152 54.4922L93.1152 12.3047C93.1152 9.61914 92.6758 7.76367 92.3828 7.12891L64.1602 31.8359Z" fill="#333333"/>
 </g>
</svg>
