<?xml version="1.0" encoding="UTF-8"?>
<!--Generator: Apple Native CoreSVG 326-->
<!DOCTYPE svg
PUBLIC "-//W3C//DTD SVG 1.1//EN"
       "http://www.w3.org/Graphics/SVG/1.1/DTD/svg11.dtd">
<svg version="1.1" xmlns="http://www.w3.org/2000/svg" xmlns:xlink="http://www.w3.org/1999/xlink" viewBox="0 0 78.8574 78.8574">
 <g>
  <rect height="78.8574" opacity="0" width="78.8574" x="0" y="0"/>
  <path d="M9.42383 56.2012C15.2344 52.002 15.2344 44.6289 17.2363 44.6289C18.4082 44.6289 19.4824 45.6543 21.5332 48.291C25.0488 52.7832 27.4414 55.127 29.8828 55.127C32.2266 55.127 35.0098 51.8555 35.0098 49.1211C35.0098 47.998 32.8125 46.3379 32.8125 45.4102C32.8125 44.9219 33.3496 44.6777 33.9355 44.6777C39.0137 44.6777 44.1406 40.4297 44.1406 36.6211C44.1406 34.082 39.8438 31.7383 39.8438 30.0781C39.8438 29.2969 40.4785 28.8086 41.2109 28.8086C41.6504 28.8086 42.1875 29.0039 42.7246 29.3945C47.0703 32.959 49.0234 30.8594 49.4629 29.0039C49.6582 28.2227 50.0488 27.2461 52.1973 26.1719C56.9336 23.584 60.0098 20.3613 60.0098 17.8223C60.0098 14.9902 54.9316 12.3535 54.9316 11.3281C54.9316 10.7422 55.6641 10.3516 57.959 9.7168C54.1992 6.29883 48.3398 3.36914 39.3555 3.36914C18.0664 4.39453 3.85742 19.043 3.71094 39.4043C3.66211 45.8008 5.66406 51.8555 9.42383 56.2012ZM56.4941 71.7773C64.0625 66.9434 69.5801 61.1816 72.998 54.541C72.4121 49.6582 69.9707 46.7285 66.6016 46.7285C65.7227 46.7285 64.5996 46.875 63.623 47.2168C62.4023 47.6074 62.207 47.5586 61.2305 46.3867C59.668 44.6289 58.3008 43.9941 56.1523 43.9941C52.1973 43.9941 49.8047 46.1426 48.0957 51.2207C47.6562 52.7344 47.0215 53.2227 44.4336 54.1992L42.8711 54.7852C39.7949 55.957 39.0137 58.1543 40.0391 62.6953C40.9668 66.6504 42.9199 68.75 45.7031 68.75C48.1934 68.75 49.6094 67.8711 51.2207 67.8711C53.6133 67.8223 54.7363 69.3848 56.4941 71.7773ZM49.0234 37.1094C51.5137 37.1094 52.6367 34.8633 55.4688 34.0332C57.3242 33.4961 58.3008 31.5918 58.3008 29.9805C58.3008 28.6621 57.666 27.5391 56.25 27.5391C54.7363 27.5391 53.3203 28.7109 52.3926 30.6641C51.9043 31.7871 51.0742 32.3242 49.0234 32.9102C47.4121 33.3984 46.8262 33.9844 46.8262 35.2051C46.8262 36.5234 47.8516 37.1094 49.0234 37.1094ZM37.8418 54.8828C40.0391 54.8828 42.1875 52.3438 42.1875 50.0488C42.1875 47.2656 41.0156 45.9473 39.6973 45.9473C38.2324 45.9473 37.3047 47.6562 37.3047 50.293C37.3047 51.8066 35.9863 51.8555 35.9863 53.3691C35.9863 54.2969 36.7188 54.8828 37.8418 54.8828ZM31.1523 61.9629C32.8125 61.9629 33.8867 61.084 33.8867 59.668C33.8867 58.5938 33.0566 57.9102 31.8848 57.9102C27.2461 57.9102 27.0508 55.2734 24.8047 55.2734C23.584 55.2734 22.7051 56.0059 22.7051 57.0801C22.7051 57.959 23.584 58.5938 24.707 58.5938C27.1973 58.5938 26.0254 61.9629 31.1523 61.9629ZM39.4043 78.8086C61.1816 78.8086 78.8574 61.1816 78.8574 39.4043C78.8574 17.627 61.1816 0 39.4043 0C17.6758 0 0 17.627 0 39.4043C0 61.1816 17.6758 78.8086 39.4043 78.8086ZM39.4043 72.9492C20.8984 72.9492 5.9082 57.9102 5.9082 39.4043C5.9082 20.8984 20.8984 5.85938 39.4043 5.85938C57.9102 5.85938 72.9492 20.8984 72.9492 39.4043C72.9492 57.9102 57.9102 72.9492 39.4043 72.9492Z" fill="#333333"/>
 </g>
</svg>
