<?xml version="1.0" encoding="UTF-8"?>
<!--Generator: Apple Native CoreSVG 326-->
<!DOCTYPE svg
PUBLIC "-//W3C//DTD SVG 1.1//EN"
       "http://www.w3.org/Graphics/SVG/1.1/DTD/svg11.dtd">
<svg version="1.1" xmlns="http://www.w3.org/2000/svg" xmlns:xlink="http://www.w3.org/1999/xlink" viewBox="-3 -3 84.8574 84.8574">
 <g>
  <rect height="78.8574" opacity="0" width="78.8574" x="0" y="0"/>
  <path d="M39.4043 76.3184C50.3418 76.3184 58.9844 60.2539 58.9844 39.502C58.9844 18.6035 50.3906 2.49023 39.4043 2.49023C28.418 2.49023 19.873 18.6035 19.873 39.502C19.873 60.2539 28.4668 76.3184 39.4043 76.3184ZM39.4043 7.8125C46.6797 7.8125 53.2227 22.6562 53.2227 39.502C53.2227 56.1523 46.6797 70.9961 39.4043 70.9961C32.1777 70.9961 25.6348 56.1523 25.6348 39.502C25.6348 22.6562 32.1777 7.8125 39.4043 7.8125ZM36.5723 3.02734L36.5723 75.5859L42.2363 75.5859L42.2363 3.02734ZM39.4043 53.2227C27.5391 53.2227 16.8945 56.3965 11.5723 61.5234L15.918 65.0879C20.8984 61.084 29.1016 58.8867 39.4043 58.8867C49.7559 58.8867 57.9102 61.084 62.9395 65.0879L67.2852 61.5234C61.9141 56.3965 51.3184 53.2227 39.4043 53.2227ZM74.5605 36.5723L4.24805 36.5723L4.24805 42.2363L74.5605 42.2363ZM39.4043 25.7812C51.3184 25.7812 61.9141 22.6074 67.2852 17.4805L62.9395 13.916C57.9102 17.9199 49.7559 20.1172 39.4043 20.1172C29.1016 20.1172 20.8984 17.9199 15.918 13.916L11.5723 17.4805C16.8945 22.6074 27.5391 25.7812 39.4043 25.7812ZM39.4043 78.8086C61.1816 78.8086 78.8574 61.1816 78.8574 39.4043C78.8574 17.627 61.1816 0 39.4043 0C17.6758 0 0 17.627 0 39.4043C0 61.1816 17.6758 78.8086 39.4043 78.8086ZM39.4043 72.9492C20.8984 72.9492 5.9082 57.9102 5.9082 39.4043C5.9082 20.8984 20.8984 5.85938 39.4043 5.85938C57.9102 5.85938 72.9492 20.8984 72.9492 39.4043C72.9492 57.9102 57.9102 72.9492 39.4043 72.9492Z" fill="black" fill-opacity="0.85"/>
 </g>
</svg>
