<?xml version="1.0" encoding="UTF-8"?>
<!--Generator: Apple Native CoreSVG 326-->
<!DOCTYPE svg
PUBLIC "-//W3C//DTD SVG 1.1//EN"
       "http://www.w3.org/Graphics/SVG/1.1/DTD/svg11.dtd">
<svg version="1.1" xmlns="http://www.w3.org/2000/svg" xmlns:xlink="http://www.w3.org/1999/xlink" viewBox="0 0 74.2251 74.9424">
 <g>
  <rect height="74.9424" opacity="0" width="74.2251" x="0" y="0"/>
  <path d="M0 30.1011C0 46.71 13.5073 60.1836 30.1162 60.1836C36.7837 60.1836 42.8989 58.0117 47.8828 54.3145L67.2729 73.7534C68.0713 74.5332 69.1138 74.9273 70.2051 74.9273C72.583 74.9273 74.2251 73.127 74.2251 70.8247C74.2251 69.73 73.794 68.7363 73.1001 67.96L53.7774 48.6035C57.8013 43.5034 60.1836 37.0952 60.1836 30.1011C60.1836 13.5073 46.71 0 30.1162 0C13.5073 0 0 13.5073 0 30.1011ZM5.74855 30.1011C5.74855 16.6553 16.6553 5.74855 30.1162 5.74855C43.5283 5.74855 54.4688 16.6553 54.4688 30.1011C54.4688 43.5283 43.5283 54.4688 30.1162 54.4688C16.6553 54.4688 5.74855 43.5283 5.74855 30.1011Z" fill="#333333"/>
 </g>
</svg>
