<?xml version="1.0" encoding="UTF-8"?>
<!--Generator: Apple Native CoreSVG 326-->
<!DOCTYPE svg
PUBLIC "-//W3C//DTD SVG 1.1//EN"
       "http://www.w3.org/Graphics/SVG/1.1/DTD/svg11.dtd">
<svg version="1.1" xmlns="http://www.w3.org/2000/svg" xmlns:xlink="http://www.w3.org/1999/xlink" viewBox="0 0 68.4204 74.9707">
 <g>
  <rect height="74.9707" opacity="0" width="68.4204" x="0" y="0"/>
  <path d="M13.9063 74.9707C15.5215 74.9707 16.6904 74.1201 17.0054 72.456L30.8687 4.07032C30.9175 3.84131 31 3.37989 31 2.91504C31 1.28467 29.8159 0.321287 28.1855 0.321287C26.3008 0.321287 25.4199 1.35547 25.1201 2.95215L11.2905 71.2705C11.208 71.6308 11.1592 72.0771 11.1592 72.4106C11.1592 74.0713 12.2944 74.9707 13.9063 74.9707ZM38.6641 74.9707C40.2944 74.9707 41.4634 74.1201 41.812 72.456L55.6416 4.07032C55.6904 3.84131 55.773 3.37989 55.773 2.91504C55.773 1.28467 54.5889 0.321287 52.9585 0.321287C51.1074 0.321287 50.2266 1.35547 49.9268 2.95215L36.0483 71.2705C35.9658 71.6308 35.917 72.0771 35.917 72.4106C35.917 74.0713 37.0674 74.9707 38.6641 74.9707ZM7.69044 26.2095L65.3027 26.2095C67.1353 26.2095 68.4204 24.8906 68.4204 23.0581C68.4204 21.5439 67.4048 20.3784 65.8603 20.3784L8.26319 20.3784C6.41553 20.3784 5.16406 21.7461 5.16406 23.5972C5.16406 25.1265 6.17969 26.2095 7.69044 26.2095ZM2.52637 53.0649L60.1538 53.0649C61.9863 53.0649 63.2866 51.7461 63.2866 49.9136C63.2866 48.3994 62.2559 47.2339 60.7266 47.2339L3.13282 47.2339C1.28516 47.2339 0 48.6016 0 50.4526C0 51.9819 1.03076 53.0649 2.52637 53.0649Z" fill="#333333"/>
 </g>
</svg>
