<?xml version="1.0" encoding="UTF-8"?>
<!--Generator: Apple Native CoreSVG 326-->
<!DOCTYPE svg
PUBLIC "-//W3C//DTD SVG 1.1//EN"
       "http://www.w3.org/Graphics/SVG/1.1/DTD/svg11.dtd">
<svg version="1.1" xmlns="http://www.w3.org/2000/svg" xmlns:xlink="http://www.w3.org/1999/xlink" viewBox="-4 0 53.3394 62.5742">
 <g>
  <rect height="62.5742" opacity="0" width="45.3394" x="0" y="0"/>
  <path d="M4.81788 62.5254L13.3984 62.5254C16.5659 62.5254 18.1826 60.9087 18.1826 57.7075L18.1826 4.81788C18.1826 1.48194 16.5659 0 13.3984 0L4.81788 0C1.6167 0 0 1.6167 0 4.81788L0 57.7075C0 60.9087 1.6167 62.5254 4.81788 62.5254ZM31.9746 62.5254L40.5552 62.5254C43.7227 62.5254 45.3394 60.9087 45.3394 57.7075L45.3394 4.81788C45.3394 1.48194 43.7227 0 40.5552 0L31.9746 0C28.7735 0 27.1567 1.6167 27.1567 4.81788L27.1567 57.7075C27.1567 60.9087 28.7735 62.5254 31.9746 62.5254Z" fill="#333333"/>
 </g>
</svg>
