<?xml version="1.0" encoding="UTF-8"?>
<!--Generator: Apple Native CoreSVG 326-->
<!DOCTYPE svg
PUBLIC "-//W3C//DTD SVG 1.1//EN"
       "http://www.w3.org/Graphics/SVG/1.1/DTD/svg11.dtd">
<svg version="1.1" xmlns="http://www.w3.org/2000/svg" xmlns:xlink="http://www.w3.org/1999/xlink" viewBox="0 0 58.2398 91.0254">
 <g>
  <rect height="91.0254" opacity="0" width="58.2398" x="0" y="0"/>
  <path d="M29.103 91.0254C29.9956 91.0254 32.1699 86.5322 32.1699 81.2187L32.1699 59.4434L26.0698 59.4434L26.0698 81.2187C26.0698 86.5322 28.2441 91.0254 29.103 91.0254ZM5.2793 62.1787L52.9268 62.1787C56.1836 62.1787 58.2398 60.1831 58.2398 57.1821C58.2398 45.9751 45.9395 34.8804 29.103 34.8804C12.3003 34.8804 0 45.9751 0 57.1821C0 60.1831 2.07129 62.1787 5.2793 62.1787ZM6.54444 57.0552C5.66896 57.0552 5.23634 56.5552 5.37111 55.5112C6.0298 48.0689 15.2876 39.8355 29.103 39.8355C42.9673 39.8355 52.1763 48.0689 52.8687 55.5112C53.0034 56.5552 52.5371 57.0552 51.6616 57.0552ZM5.10107 6.42676C5.10107 7.51465 5.54394 8.7002 6.46679 9.91602C8.41992 12.5762 13.0552 16.1895 17.6372 19.2105L16.2817 39.2236L21.6748 39.2236L23.0606 16.7681C23.1094 16.2427 23.0269 16.0625 22.6817 15.8823C17.145 13.0249 12.3926 9.20362 12.1719 8.25782C11.9024 7.76954 12.2139 7.4126 12.6953 7.4126L45.5444 7.4126C46.0073 7.4126 46.3037 7.76954 46.083 8.25782C45.8135 9.20362 41.0947 13.0249 35.5396 15.8823C35.228 16.0625 35.1455 16.2427 35.1943 16.7681L36.5801 39.2236L41.958 39.2236L40.5689 19.2105C45.166 16.1895 49.8013 12.5762 51.7544 9.91602C52.6958 8.7002 53.1387 7.51465 53.1387 6.42676C53.1387 4.23926 51.4429 2.62597 48.9136 2.62597L9.32617 2.62597C6.76318 2.62597 5.10107 4.23926 5.10107 6.42676Z" fill="#333333"/>
 </g>
</svg>
