<?xml version="1.0" encoding="UTF-8"?>
<!--Generator: Apple Native CoreSVG 326-->
<!DOCTYPE svg
PUBLIC "-//W3C//DTD SVG 1.1//EN"
       "http://www.w3.org/Graphics/SVG/1.1/DTD/svg11.dtd">
<svg version="1.1" xmlns="http://www.w3.org/2000/svg" xmlns:xlink="http://www.w3.org/1999/xlink" viewBox="0 0 84.6175 91.0254">
 <g>
  <rect height="91.0254" opacity="0" width="84.6175" x="0" y="0"/>
  <path d="M29.4295 42.596C22.968 45.6259 19.0046 50.7317 18.56 55.5112C18.4252 56.5552 18.8578 57.0552 19.767 57.0552L43.9029 57.0552L49.0315 62.1787L45.3588 62.1787L45.3588 81.2187C45.3588 86.5322 43.1845 91.0254 42.3256 91.0254C41.433 91.0254 39.2587 86.5322 39.2587 81.2187L39.2587 62.1787L18.5018 62.1787C15.2601 62.1787 13.1889 60.1831 13.1889 57.1821C13.1889 50.1574 18.0216 43.1768 25.7773 38.9474ZM66.3276 6.42676C66.3276 7.51465 65.8847 8.7002 64.977 9.91602C63.0238 12.5762 58.3549 16.1895 53.7577 19.2105L55.0064 37.1999C64.9724 41.0024 71.4286 49.0628 71.4286 57.1821C71.4286 59.5469 70.1519 61.2874 68.0296 61.9141L63.1683 57.0552L64.8842 57.0552C65.7597 57.0552 66.1923 56.5552 66.0575 55.5112C65.432 48.7881 57.8441 41.4194 46.1842 40.0794L41.0356 34.9333C41.4534 34.8879 41.8879 34.8804 42.3256 34.8804C44.8482 34.8804 47.2694 35.1304 49.5466 35.6199L48.3832 16.7681C48.3344 16.2427 48.4169 16.0625 48.7621 15.8823C54.2836 13.0249 59.0023 9.20362 59.2719 8.25782C59.5263 7.76954 59.2147 7.4126 58.7333 7.4126L25.8842 7.4126C25.4364 7.4126 25.1249 7.76954 25.3607 8.25782C25.6151 9.20362 30.3339 13.0249 35.8705 15.8823C36.2157 16.0625 36.2982 16.2427 36.2494 16.7681L35.4716 29.3721L30.4994 24.4023L30.8598 19.2105C26.2777 16.1895 21.6273 12.5762 19.6742 9.91602C18.7328 8.7002 18.2899 7.51465 18.2899 6.42676C18.2899 4.23926 19.9857 2.62597 22.515 2.62597L62.1024 2.62597C64.6654 2.62597 66.3276 4.23926 66.3276 6.42676Z" fill="#333333"/>
  <path d="M4.92957 12.1836L73.4774 80.6641C74.4931 81.6797 76.1723 81.6797 77.1542 80.6641C78.1664 79.6182 78.185 78.0029 77.1542 76.9722L8.64003 8.4917C7.67323 7.47608 5.96034 7.4458 4.92957 8.4917C3.9325 9.48878 3.9325 11.1865 4.92957 12.1836Z" fill="#333333"/>
 </g>
</svg>
