<?xml version="1.0" encoding="UTF-8"?>
<!DOCTYPE svg
PUBLIC "-//W3C//DTD SVG 1.1//EN"
       "http://www.w3.org/Graphics/SVG/1.1/DTD/svg11.dtd">
<svg version="1.1" xmlns="http://www.w3.org/2000/svg" xmlns:xlink="http://www.w3.org/1999/xlink" viewBox="0 0 89.8799 69.9385">
 <g>
  <rect height="69.9385" opacity="0" width="89.8799" x="0" y="0"/>
  <path d="M11.6338 69.9385L78.2461 69.9385C85.9902 69.9385 89.8799 66.0186 89.8799 58.4058L89.8799 11.6118C89.8799 3.99902 85.9902 0.0791013 78.2461 0.0791013L11.6338 0.0791013C3.92334 0.0791013 0 3.96875 0 11.6118L0 58.4058C0 66.0488 3.92334 69.9385 11.6338 69.9385ZM11.7315 64.478C7.65577 64.478 5.42677 62.3501 5.42677 58.1397L5.42677 11.8779C5.42677 7.70118 7.65577 5.53956 11.7315 5.53956L78.1484 5.53956C82.1636 5.53956 84.4531 7.70118 84.4531 11.8779L84.4531 58.1397C84.4531 62.3501 82.1636 64.478 78.1484 64.478ZM28.7842 65.5576L34.1099 65.5576L34.1099 4.40968L28.7842 4.40968ZM21.4414 19.7603C22.5327 19.7603 23.4287 18.8154 23.4287 17.773C23.4287 16.7456 22.5327 15.8682 21.4414 15.8682L12.8369 15.8682C11.7793 15.8682 10.8682 16.7456 10.8682 17.773C10.8682 18.8154 11.7793 19.7603 12.8369 19.7603ZM21.4414 29.7681C22.5327 29.7681 23.4287 28.8569 23.4287 27.7959C23.4287 26.7534 22.5327 25.876 21.4414 25.876L12.8369 25.876C11.7793 25.876 10.8682 26.7534 10.8682 27.7959C10.8682 28.8569 11.7793 29.7681 12.8369 29.7681ZM21.4414 39.7608C22.5327 39.7608 23.4287 38.8648 23.4287 37.8223C23.4287 36.7798 22.5327 35.9175 21.4414 35.9175L12.8369 35.9175C11.7793 35.9175 10.8682 36.7798 10.8682 37.8223C10.8682 38.8648 11.7793 39.7608 12.8369 39.7608Z" fill="#333333"/>
 </g>
</svg>
