<?xml version="1.0" encoding="UTF-8"?>
<!--Generator: Apple Native CoreSVG 326-->
<!DOCTYPE svg
PUBLIC "-//W3C//DTD SVG 1.1//EN"
       "http://www.w3.org/Graphics/SVG/1.1/DTD/svg11.dtd">
<svg version="1.1" xmlns="http://www.w3.org/2000/svg" xmlns:xlink="http://www.w3.org/1999/xlink" viewBox="0 0 60.1367 60.1904">
 <g>
  <rect height="60.1904" opacity="0" width="60.1367" x="0" y="0"/>
  <path d="M0.890612 59.3276C2.0747 60.478 3.99316 60.478 5.15869 59.3276L30.0683 34.3692L55.0268 59.3276C56.1435 60.478 58.0957 60.478 59.2612 59.3276C60.4116 58.1284 60.4116 56.21 59.2612 55.0781L34.3027 30.1348L59.2612 5.22511C60.4116 4.05958 60.4453 2.10743 59.2612 0.957033C58.062-0.174806 56.1435-0.174806 55.0268 0.957033L30.0683 25.9004L5.15869 0.957033C3.99316-0.174806 2.04101-0.208497 0.890612 0.957033C-0.241227 2.14112-0.241227 4.05958 0.890612 5.22511L25.834 30.1348L0.890612 55.0781C-0.241227 56.21-0.274918 58.1621 0.890612 59.3276Z" fill="#333333"/>
 </g>
</svg>
